<!--?xml version="1.0" encoding="utf-8"?-->
<!-- Generator: Adobe Illustrator 15.1.0, SVG Export Plug-In . SVG Version: 6.00 Build 0)  -->

<svg version="1.1" id="_x32_" xmlns="http://www.w3.org/2000/svg" xmlns:xlink="http://www.w3.org/1999/xlink" x="0px" y="0px" width="512px" height="512px" viewBox="0 0 512 512" style="width: 256px; height: 256px; opacity: 1;" xml:space="preserve">
<style type="text/css">

	.st0{fill:#4B4B4B;}

</style>
<g>
	<path class="st0" d="M424.743,0.003l-3.328,20.406c-25.719,190.891-247.86,336.016-247.86,336.016l44.219,54.954
		c0,0,192.282-134.625,231.735-247.704C485.79,59.644,424.743,0.003,424.743,0.003z M437.321,159.425
		c-32.625,93.516-177.953,205.406-217.188,234.313l-27.828-34.578c19.609-13.984,61.094-45.438,104.766-90.141
		c52.906-54.156,118.266-138.203,135.359-235.469C445.243,58.3,457.618,101.269,437.321,159.425z" style="fill: rgb(0, 0, 0);"></path>
	<path class="st0" d="M213.118,440.926l-63.031-80.688c1.75-5.875,1.234-12.438-2-18.234c-6.344-11.406-20.75-15.5-32.156-9.141
		s-15.5,20.75-9.141,32.156c4.5,8.078,13.031,12.469,21.688,12.094l63.031,80.688c-1.75,5.891-1.234,12.453,2,18.234
		c6.344,11.422,20.75,15.516,32.156,9.156s15.5-20.75,9.141-32.156C230.305,444.941,221.774,440.566,213.118,440.926z" style="fill: rgb(0, 0, 0);"></path>
	<path class="st0" d="M57.461,451.723c-7.359,5.75-8.641,16.375-2.891,23.719l23.547,30.078c5.766,7.344,16.375,8.641,23.734,2.875
		l63.188-49.484l-44.391-56.688L57.461,451.723z" style="fill: rgb(0, 0, 0);"></path>
</g>
</svg>
